HIERARCHY
ROOT Hips
{
	OFFSET 53.456799 -8.414035 93.761703
	CHANNELS 6 Xposition Yposition Zposition Xrotation Yrotation Zrotation
	JOINT spine
	{
		OFFSET 0.000000 -0.429886 7.475601
		CHANNELS 3 Xrotation Yrotation Zrotation
		JOINT spine1
		{
			OFFSET 0.000000 -0.000002 9.923012
			CHANNELS 3 Xrotation Yrotation Zrotation
			JOINT spine2
			{
				OFFSET 0.000000 -0.000002 9.508041
				CHANNELS 3 Xrotation Yrotation Zrotation
				JOINT Neck
				{
					OFFSET 0.000000 -1.163844 24.411095
					CHANNELS 3 Xrotation Yrotation Zrotation
					JOINT Head
					{
						OFFSET 0.000000 -0.000001 7.375229
						CHANNELS 3 Xrotation Yrotation Zrotation
						End Site
						{
							OFFSET 0.000000 5.887407 17.852203
						}
					}
				}
				JOINT RightShoulder
				{
					OFFSET -4.003559 0.557467 10.267906
					CHANNELS 3 Xrotation Yrotation Zrotation
					JOINT RightArm
					{
						OFFSET 0.000000 -0.000003 13.467300
						CHANNELS 3 Xrotation Yrotation Zrotation
						JOINT RightArmRoll
						{
							OFFSET 0.000000 -0.000001 6.798584
							CHANNELS 3 Xrotation Yrotation Zrotation
							JOINT RightForeArm
							{
								OFFSET 0.000000 -0.000003 19.801804
								CHANNELS 3 Xrotation Yrotation Zrotation
								JOINT RightForeArmRoll
								{
									OFFSET 0.000000 -0.000002 7.629059
									CHANNELS 3 Xrotation Yrotation Zrotation
									JOINT RightHand
									{
										OFFSET 0.000000 -0.000002 15.309799
										CHANNELS 3 Xrotation Yrotation Zrotation
										End Site
										{
											OFFSET 0.000000 0.000000 0.100006
										}
									}
								}
							}
						}
					}
				}
				JOINT LeftShoulder
				{
					OFFSET 4.003559 0.557467 10.267906
					CHANNELS 3 Xrotation Yrotation Zrotation
					JOINT LeftArm
					{
						OFFSET 0.000000 -0.000003 13.467300
						CHANNELS 3 Xrotation Yrotation Zrotation
						JOINT LeftArmRoll
						{
							OFFSET 0.000000 -0.000001 6.798584
							CHANNELS 3 Xrotation Yrotation Zrotation
							JOINT LeftForeArm
							{
								OFFSET 0.000000 -0.000003 19.801804
								CHANNELS 3 Xrotation Yrotation Zrotation
								JOINT LeftForeArmRoll
								{
									OFFSET 0.000000 -0.000002 7.629044
									CHANNELS 3 Xrotation Yrotation Zrotation
									JOINT LeftHand
									{
										OFFSET 0.000000 -0.000002 15.309799
										CHANNELS 3 Xrotation Yrotation Zrotation
										End Site
										{
											OFFSET 0.000000 0.000000 0.100006
										}
									}
								}
							}
						}
					}
				}
			}
		}
	}
	JOINT RightUpLeg
	{
		OFFSET -6.626091 1.019270 -1.215050
		CHANNELS 3 Xrotation Yrotation Zrotation
		JOINT RightUpLegRoll
		{
			OFFSET 0.000000 -0.000003 17.951698
			CHANNELS 3 Xrotation Yrotation Zrotation
			JOINT RightLeg
			{
				OFFSET 0.000000 0.000004 -22.230400
				CHANNELS 3 Xrotation Yrotation Zrotation
				JOINT RightLegRoll
				{
					OFFSET 0.000000 -0.000004 22.303200
					CHANNELS 3 Xrotation Yrotation Zrotation
					JOINT RightFoot
					{
						OFFSET 0.000000 -0.000003 18.563599
						CHANNELS 3 Xrotation Yrotation Zrotation
						JOINT RightToeBase
						{
							OFFSET 0.000000 -0.000002 15.518295
							CHANNELS 3 Xrotation Yrotation Zrotation
							End Site
							{
								OFFSET 0.006577 0.866261 7.515396
							}
						}
					}
				}
			}
		}
	}
	JOINT LeftUpLeg
	{
		OFFSET 6.626091 1.019270 -1.215050
		CHANNELS 3 Xrotation Yrotation Zrotation
		JOINT LeftUpLegRoll
		{
			OFFSET 0.000000 -0.000003 17.951797
			CHANNELS 3 Xrotation Yrotation Zrotation
			JOINT LeftLeg
			{
				OFFSET 0.000000 -0.000003 22.230309
				CHANNELS 3 Xrotation Yrotation Zrotation
				JOINT LeftLegRoll
				{
					OFFSET 0.000000 -0.000004 22.509308
					CHANNELS 3 Xrotation Yrotation Zrotation
					JOINT LeftFoot
					{
						OFFSET 0.000000 -0.000003 18.357498
						CHANNELS 3 Xrotation Yrotation Zrotation
						JOINT LeftToeBase
						{
							OFFSET 0.000000 -0.000003 15.518295
							CHANNELS 3 Xrotation Yrotation Zrotation
							End Site
							{
								OFFSET -0.029476 0.866262 7.515381
							}
						}
					}
				}
			}
		}
	}
}
MOTION
Frames: 8
Frame Time: 0.041667
53.011997 -9.216377 93.636787 -5.248843 0.364437 -0.691508 -1.078090 -0.268572 0.183263 1.847492 -0.538720 0.364103 3.492582 -0.534320 0.370530 14.109383 10.570832 -3.584777 4.561594 -8.599253 -2.755868 -2.748516 -68.751742 -4.256169 6.645132 -103.541658 30.158868 -0.000001 0.000000 -0.000006 7.075822 -5.715174 -0.915092 -0.000001 0.000000 -3.002560 -5.000198 -7.999293 0.000099 -3.079299 76.371262 5.328416 8.308642 94.596740 -30.329452 -0.000001 -0.000026 0.000007 3.174065 7.069329 0.566933 0.000002 0.000006 3.006300 -5.000245 7.999080 -0.000127 2.049348 178.212135 -1.699114 -179.999991 0.000005 -1.139994 170.847497 -1.697132 -0.581378 -0.000001 -0.000003 0.162153 70.108176 6.860591 2.166429 25.456964 -7.355619 0.000002 2.939255 179.247988 3.121940 -0.000005 -0.000004 -1.088170 -6.580111 1.821967 0.299375 0.000000 0.000003 -0.069350 69.080021 -6.850894 -2.204050 25.456957 7.355614 -0.000000 
53.008297 -9.238239 93.639000 -5.284946 0.366136 -0.689827 -1.066192 -0.268949 0.179296 1.871283 -0.539357 0.356268 3.516373 -0.535051 0.362704 14.105173 10.604842 -3.570915 4.510288 -8.608948 -2.745580 -2.717028 -68.737733 -4.219665 6.069737 -103.558235 29.604584 -0.000001 0.000000 -0.000003 6.983184 -5.683803 -0.921275 -0.000001 -0.000000 -3.002561 -5.000195 -7.999292 0.000099 -3.149506 76.352458 5.402066 7.418902 94.588558 -29.372067 -0.000000 -0.000024 0.000009 3.189972 7.109562 0.564343 0.000001 0.000006 3.006302 -5.000245 7.999080 -0.000126 2.085144 178.210195 -1.696414 -179.999991 0.000005 -1.139994 170.845134 -1.696136 -0.581290 -0.000001 -0.000003 0.162153 70.108825 6.860608 2.166493 25.456965 -7.355620 0.000002 2.971864 179.250009 3.124015 -0.000005 -0.000004 -1.088200 -6.584033 1.816528 0.299370 0.000000 0.000002 -0.069351 69.080841 -6.850871 -2.204094 25.456957 7.355613 -0.000000 
53.008698 -9.231305 93.642303 -5.321303 0.367945 -0.688045 -1.054191 -0.269307 0.175296 1.895264 -0.539948 0.348396 3.540355 -0.535737 0.354838 14.100824 10.637896 -3.557101 4.458626 -8.618324 -2.735447 -2.686246 -68.724209 -4.184010 5.498967 -103.576185 29.054511 -0.000001 0.000001 -0.000004 6.891547 -5.653019 -0.927233 -0.000001 -0.000000 -3.002559 -5.000196 -7.999292 0.000100 -3.221652 76.332610 5.477702 6.517497 94.582595 -28.404006 -0.000001 -0.000024 0.000006 3.204176 7.148925 0.561824 0.000002 0.000006 3.006301 -5.000244 7.999082 -0.000124 2.121337 178.207231 -1.693725 -179.999991 0.000005 -1.139994 170.842893 -1.695128 -0.581195 -0.000001 -0.000003 0.162153 70.109467 6.860623 2.166455 25.456965 -7.355619 0.000001 3.004556 179.252045 3.126113 -0.000005 -0.000004 -1.088220 -6.588216 1.811009 0.299369 0.000001 0.000002 -0.069351 69.081694 -6.850883 -2.204042 25.456955 7.355613 -0.000001 
53.010597 -9.212255 93.640694 -5.357831 0.369829 -0.686192 -1.042123 -0.269655 0.171277 1.919386 -0.540510 0.340496 3.564487 -0.536393 0.346947 14.096245 10.670373 -3.543322 4.406689 -8.627487 -2.725418 -2.655985 -68.711177 -4.148975 4.931981 -103.595480 28.508120 -0.000001 -0.000000 -0.000002 6.800624 -5.622628 -0.932996 -0.000001 -0.000000 -3.002562 -5.000196 -7.999294 0.000099 -3.295050 76.311921 5.554635 5.607636 94.578613 -27.428124 -0.000001 -0.000024 0.000006 3.217209 7.187685 0.559356 0.000002 0.000006 3.006299 -5.000243 7.999080 -0.000124 2.157795 178.205277 -1.690980 -179.999991 0.000005 -1.139994 170.840735 -1.694133 -0.581100 -0.000001 -0.000003 0.162153 70.110198 6.860609 2.166409 25.456965 -7.355620 0.000002 3.037318 179.254039 3.128220 -0.000005 -0.000004 -1.088240 -6.592576 1.805440 0.299372 0.000000 0.000002 -0.069351 69.082657 -6.850900 -2.203988 25.456959 7.355613 -0.000000 
53.009995 -9.217428 93.639999 -5.394474 0.371756 -0.684297 -1.030014 -0.269997 0.167244 1.943587 -0.541057 0.332582 3.588688 -0.537036 0.339039 14.091547 10.702370 -3.529522 4.354604 -8.636534 -2.715465 -2.626029 -68.698330 -4.114311 4.367669 -103.617077 27.964338 -0.000001 0.000000 -0.000003 6.710106 -5.592466 -0.938630 -0.000002 0.000000 -3.002557 -5.000196 -7.999292 0.000101 -3.369098 76.290891 5.632232 4.692527 94.576277 -26.447411 -0.000001 -0.000024 0.000005 3.229558 7.226099 0.556909 0.000002 0.000006 3.006301 -5.000244 7.999080 -0.000127 2.194414 178.202313 -1.688282 -179.999991 0.000005 -1.139994 170.838618 -1.693138 -0.581004 -0.000001 -0.000003 0.162153 70.110833 6.860591 2.166466 25.456967 -7.355619 0.000002 3.070096 179.256061 3.130341 -0.000005 -0.000004 -1.088260 -6.597048 1.799841 0.299375 0.000000 0.000002 -0.069351 69.083593 -6.850881 -2.204026 25.456959 7.355613 -0.000001 
53.010197 -9.204933 93.640694 -5.431135 0.373692 -0.682390 -1.017890 -0.270338 0.163208 1.967808 -0.541605 0.324665 3.612910 -0.537679 0.331129 14.086853 10.734371 -3.515750 4.302479 -8.645577 -2.705544 -2.596166 -68.685482 -4.079749 3.805763 -103.638961 27.423133 -0.000001 0.000000 -0.000003 6.619700 -5.562365 -0.944145 -0.000001 0.000000 -3.002559 -5.000195 -7.999293 0.000100 -3.443113 76.269656 5.709791 3.774905 94.575485 -25.464279 -0.000001 -0.000026 0.000005 3.241739 7.264424 0.554457 0.000002 0.000006 3.006300 -5.000244 7.999080 -0.000123 2.231090 178.199362 -1.685570 -179.999991 0.000005 -1.139994 170.836500 -1.692144 -0.580907 -0.000000 -0.000004 0.162153 70.111468 6.860607 2.166429 25.456965 -7.355619 0.000001 3.102891 179.258096 3.132473 -0.000005 -0.000004 -1.088270 -6.601539 1.794232 0.299377 0.000000 0.000002 -0.069350 69.084645 -6.850870 -2.203958 25.456957 7.355612 -0.000000 
53.010197 -9.205084 93.639389 -5.467737 0.375603 -0.680500 -1.005792 -0.270686 0.159179 1.991989 -0.542171 0.316757 3.637090 -0.538341 0.323227 14.082171 10.766568 -3.501959 4.250425 -8.654714 -2.695609 -2.566204 -68.672539 -4.045068 3.245097 -103.662088 26.883456 -0.000001 0.000000 -0.000005 6.529104 -5.532133 -0.949598 -0.000002 0.000000 -3.002559 -5.000196 -7.999293 0.000101 -3.516483 76.248591 5.786691 2.857570 94.575867 -24.481244 -0.000000 -0.000025 0.000006 3.254268 7.302923 0.551966 0.000001 0.000006 3.006301 -5.000243 7.999080 -0.000124 2.267670 178.196412 -1.682878 -179.999991 0.000005 -1.139994 170.834383 -1.691149 -0.580811 -0.000001 -0.000003 0.162153 70.112104 6.860587 2.166487 25.456967 -7.355619 0.000001 3.135671 179.260104 3.134598 -0.000005 -0.000004 -1.088290 -6.605992 1.788643 0.299379 0.000000 0.000002 -0.069350 69.085601 -6.850886 -2.203902 25.456959 7.355613 -0.000000 
53.016994 -9.227797 93.642784 -5.504216 0.377457 -0.678658 -0.993744 -0.271044 0.155166 2.016071 -0.542771 0.308867 3.661172 -0.539034 0.315345 14.077611 10.799147 -3.488123 4.198544 -8.664039 -2.685632 -2.535939 -68.659275 -4.010016 2.684649 -103.687463 26.344501 -0.000001 0.000000 -0.000004 6.438024 -5.501612 -0.955006 -0.000000 -0.000000 -3.002557 -5.000197 -7.999291 0.000099 -3.588613 76.228121 5.862318 1.943045 94.576926 -23.500733 -0.000001 -0.000024 0.000007 3.267639 7.341857 0.549406 0.000001 0.000006 3.006300 -5.000245 7.999081 -0.000126 2.304061 178.194458 -1.680164 -179.999991 0.000005 -1.139994 170.832184 -1.690140 -0.580715 -0.000001 -0.000003 0.162153 70.112739 6.860606 2.166451 25.456967 -7.355619 0.000001 3.168413 179.262126 3.136716 -0.000005 -0.000004 -1.088310 -6.610304 1.783085 0.299375 0.000000 0.000002 -0.069350 69.086544 -6.850868 -2.203841 25.456959 7.355613 0.000000 
